<svg width="30" height="30" viewBox="0 0 30 30" fill="white" xmlns="http://www.w3.org/2000/svg">
<g clip-path="url(#clip0_12_520)">
<path d="M4.21875 1.60986C2.53125 1.60986 1.17188 2.96924 1.17188 4.65674V11.1021C1.17188 13.0942 2.8125 14.7349 4.80469 14.7349C6 14.7349 7.07812 14.1488 7.73438 13.2348C8.39062 14.1488 9.46875 14.7349 10.6641 14.7349C11.8594 14.7349 12.9375 14.1488 13.5938 13.2348C14.25 14.1488 15.3281 14.7349 16.5234 14.7349C17.7188 14.7349 18.7969 14.1488 19.4531 13.2348C20.1094 14.1488 21.1875 14.7349 22.3828 14.7349C24.375 14.7349 26.0156 13.0942 26.0156 11.1021V4.65674C26.0156 2.96924 24.6562 1.60986 22.9688 1.60986H4.21875ZM4.21875 3.01611H7.03125V11.1021C7.03125 12.3208 6.02344 13.3286 4.80469 13.3286C3.58594 13.3286 2.57812 12.3208 2.57812 11.1021V4.65674C2.57812 3.74268 3.30469 3.01611 4.21875 3.01611ZM8.4375 3.01611H12.8906V11.1021C12.8906 12.3208 11.8828 13.3286 10.6641 13.3286C9.44531 13.3286 8.4375 12.3208 8.4375 11.1021V3.01611ZM14.2969 3.01611H18.75V11.1021C18.75 12.3208 17.7422 13.3286 16.5234 13.3286C15.3047 13.3286 14.2969 12.3208 14.2969 11.1021V3.01611ZM20.1562 3.01611H22.9688C23.8828 3.01611 24.6094 3.74268 24.6094 4.65674V11.1021C24.6094 12.3208 23.6016 13.3286 22.3828 13.3286C21.1641 13.3286 20.1562 12.3208 20.1562 11.1021V3.01611ZM28.8281 3.95361C28.4297 3.95361 28.125 4.2583 28.125 4.65674V7.00049C28.125 7.39893 28.4297 7.70361 28.8281 7.70361C29.2266 7.70361 29.5312 7.39893 29.5312 7.00049V4.65674C29.5312 4.2583 29.2266 3.95361 28.8281 3.95361ZM28.8281 10.9849C28.4297 10.9849 28.125 11.2896 28.125 11.688V29.7349H9.60938V18.2505C9.60938 17.8521 9.30469 17.5474 8.90625 17.5474H3.04688C2.64844 17.5474 2.34375 17.8521 2.34375 18.2505V29.7349H0.703125C0.304688 29.7349 0 30.0396 0 30.438C0 30.8364 0.304688 31.1411 0.703125 31.1411H3.04688C3.44531 31.1411 3.75 30.8364 3.75 30.438V18.9536H8.20312V30.438C8.20312 30.8364 8.50781 31.1411 8.90625 31.1411H28.8281C29.2266 31.1411 29.5312 30.8364 29.5312 30.438V11.688C29.5312 11.2896 29.2266 10.9849 28.8281 10.9849ZM12.1875 17.5474C11.7891 17.5474 11.4844 17.8521 11.4844 18.2505V26.9224C11.4844 27.3208 11.7891 27.6255 12.1875 27.6255H25.3125C25.7109 27.6255 26.0156 27.3208 26.0156 26.9224V18.2505C26.0156 17.8521 25.7109 17.5474 25.3125 17.5474H12.1875ZM12.8906 18.9536H24.6094V26.2192H12.8906V18.9536Z" />
</g>
<defs>
<clipPath id="clip0_12_520">
<rect width="30" height="30"/>
</clipPath>
</defs>
</svg>
