<svg width="25" height="25" viewBox="0 0 25 25" fill="none" xmlns="http://www.w3.org/2000/svg">
<path d="M15.7656 16.3755V14.3755C16.2156 14.1525 17.5026 12.6205 17.6376 11.4235C17.9916 11.3965 18.5476 11.0715 18.7116 9.78847C18.7996 9.09947 18.4496 8.71247 18.2376 8.59047C18.2376 8.59047 18.7656 7.58747 18.7656 6.37647C18.7656 3.94847 17.8126 1.87646 15.7656 1.87646C15.7656 1.87646 15.0546 0.376465 12.7656 0.376465C8.52362 0.376465 6.76562 3.09747 6.76562 6.37647C6.76562 7.48047 7.29362 8.59047 7.29362 8.59047C7.08162 8.71247 6.73163 9.10047 6.81962 9.78847C6.98362 11.0715 7.53963 11.3965 7.89363 11.4235C8.02863 12.6205 9.31563 14.1525 9.76562 14.3755V16.3755C8.76562 19.3755 0.765625 17.3755 0.765625 24.3755H24.7656C24.7656 17.3755 16.7656 19.3755 15.7656 16.3755Z" fill="white"/>
</svg>
